<svg id="Layer_1" data-name="Layer 1" xmlns="http://www.w3.org/2000/svg" viewBox="0 0 192.8 171.67"><defs><style>.cls-1{fill:none;stroke:#037ef5;stroke-miterlimit:10;}</style></defs><path class="cls-1" d="M17,69.37a12.84,12.84,0,0,1,5.81-7.72A13.21,13.21,0,0,1,29.25,60c1.41,0,2.83,0,4.49,0V52.51A13.37,13.37,0,0,1,46.81,39.32c3.24,0,6.49,0,9.73,0a13.17,13.17,0,0,1,13,11.47c.28,2.22.22,4.48.29,6.72,0,.73,0,1.46,0,2.32H95.44c0-.79.13-1.57.13-2.35q0-23.31,0-46.61c0-3.69.67-4.37,4.36-4.37H163.2c3.28,0,6.48.41,9.31,2.28a14.07,14.07,0,0,1,6.61,12.31c.06,12.1,0,24.21,0,36.31v2.43c.8,0,1.46.13,2.12.13,5.11,0,10.23-.06,15.34,0a11.87,11.87,0,0,1,10.67,6.13,11.22,11.22,0,0,1,1.51,5.9q0,15.25,0,30.51c0,20.9,0,41.81,0,62.71a11.87,11.87,0,0,1-9,11.44,22.58,22.58,0,0,1-5.2.47q-69.15,0-138.31,0-12.72,0-25.45,0c-.93,0-1.87-.08-2.8-.16-5.44-.47-8.93-3.4-10.72-8.49-.08-.23-.21-.45-.31-.67Zm16.73-4.43c-1.87,0-3.42,0-5,0a7.05,7.05,0,0,0-7.13,6.94c0,.56,0,1.13,0,1.69v89.85c0,.56,0,1.13,0,1.68a7.28,7.28,0,0,0,3.76,6.29,9.1,9.1,0,0,0,4.54.87H196.86a6.88,6.88,0,0,0,6.92-5.66,13.94,13.94,0,0,0,.27-3q0-45,0-90c0-.5,0-1,0-1.5a7.44,7.44,0,0,0-2.5-5.45,7.6,7.6,0,0,0-5.2-1.71Q177.17,65,158,65l-85.53,0H69.85v62.9c0,1.62.05,3.25,0,4.87-.25,6.77-4.32,12.29-10.75,13.22a54.67,54.67,0,0,1-14.9,0c-6.35-.85-10.55-7.33-10.51-13.16.16-21.78.06-43.55.06-65.33ZM64.82,92.79v-29c0-3.81.07-7.61,0-11.41-.07-4-2.89-7.59-6.82-8a89.46,89.46,0,0,0-12.47,0c-2.67.13-4.56,1.86-5.89,4.12a10.34,10.34,0,0,0-1.2,5.41q0,26.28,0,52.58c0,8.55,0,17.09,0,25.64,0,5.65,3.75,9.34,9.41,9.39,2.56,0,5.12.12,7.67,0a12.3,12.3,0,0,0,4.5-1,8.06,8.06,0,0,0,4.78-7.82ZM174,59.87c.07-.6.15-1,.16-1.45q0-19,0-38a8.23,8.23,0,0,0-.29-2.21c-1.19-4.26-4.68-6.79-9.39-6.79H102.56c-.61,0-1.21.06-1.78.09-.45,2.36-.33,47,.12,48.34Z" transform="translate(-16.5 -6)"/><path class="cls-1" d="M137.41,72.65c15.21,0,30.42.06,45.63,0a8.54,8.54,0,0,1,8.62,5.61,18.41,18.41,0,0,1-.09,14.9c-1.62,3.73-4.5,5.55-8.7,5.54q-45.54-.09-91.09,0c-4,0-6.88-1.74-8.5-5.27A18.23,18.23,0,0,1,83.19,78a8.38,8.38,0,0,1,8.39-5.37C106.86,72.69,122.13,72.65,137.41,72.65Zm0,21h41.35c1.62,0,3.24,0,4.86,0a3.3,3.3,0,0,0,3.09-1.73,6.35,6.35,0,0,0,.68-1.32,16.54,16.54,0,0,0,.12-9.75c-.76-2.61-2.15-3.45-4.87-3.45q-45.18,0-90.36,0c-2.47,0-4.17.44-5.22,4a16.51,16.51,0,0,0-.15,7.78c.65,3.33,2.23,4.45,5.6,4.45Z" transform="translate(-16.5 -6)"/><path class="cls-1" d="M175.63,133.71a8.69,8.69,0,1,1,8.61,8.76A8.75,8.75,0,0,1,175.63,133.71Zm12.42,0a3.51,3.51,0,0,0-3.79-3.68,3.75,3.75,0,1,0,.12,7.49A3.52,3.52,0,0,0,188.05,133.72Z" transform="translate(-16.5 -6)"/><path class="cls-1" d="M99.08,133.69a8.62,8.62,0,0,1-8.52,8.78,8.7,8.7,0,1,1-.17-17.39A8.61,8.61,0,0,1,99.08,133.69ZM90.46,130a3.75,3.75,0,0,0-.14,7.49,3.73,3.73,0,0,0,4-3.76A3.79,3.79,0,0,0,90.46,130Z" transform="translate(-16.5 -6)"/><path class="cls-1" d="M113.1,133.84a8.67,8.67,0,0,1,8.56-8.76,8.7,8.7,0,1,1,.11,17.39A8.61,8.61,0,0,1,113.1,133.84Zm12.42-.09a3.51,3.51,0,0,0-3.75-3.71,3.8,3.8,0,0,0-3.89,3.69,3.74,3.74,0,0,0,4,3.8A3.52,3.52,0,0,0,125.52,133.75Z" transform="translate(-16.5 -6)"/><path class="cls-1" d="M153,125.08a8.7,8.7,0,1,1,.09,17.39,8.7,8.7,0,1,1-.09-17.39Zm0,12.45A3.75,3.75,0,1,0,153,130a3.75,3.75,0,1,0,.1,7.49Z" transform="translate(-16.5 -6)"/><path class="cls-1" d="M175.63,155.65a8.69,8.69,0,0,1,17.38.29,8.88,8.88,0,0,1-8.85,8.59A8.79,8.79,0,0,1,175.63,155.65Zm12.42.11a3.81,3.81,0,0,0-3.74-3.84,4,4,0,0,0-3.84,3.82,3.77,3.77,0,0,0,3.92,3.83A3.54,3.54,0,0,0,188.05,155.76Z" transform="translate(-16.5 -6)"/><path class="cls-1" d="M113.1,155.82a8.54,8.54,0,0,1,8.6-8.67,8.72,8.72,0,0,1,8.79,8.53,8.89,8.89,0,0,1-8.75,8.85A8.72,8.72,0,0,1,113.1,155.82Zm12.42,0a3.82,3.82,0,0,0-3.68-3.92,4,4,0,0,0-4,3.93,3.84,3.84,0,0,0,3.89,3.72A3.53,3.53,0,0,0,125.52,155.84Z" transform="translate(-16.5 -6)"/><path class="cls-1" d="M90.5,147.15a8.54,8.54,0,0,1,8.58,8.68,8.71,8.71,0,0,1-8.64,8.7,8.88,8.88,0,0,1-8.74-8.85A8.72,8.72,0,0,1,90.5,147.15Zm-.13,12.42a3.82,3.82,0,0,0,3.93-3.67,4,4,0,0,0-3.9-4,3.81,3.81,0,0,0-3.74,3.86A3.54,3.54,0,0,0,90.37,159.57Z" transform="translate(-16.5 -6)"/><path class="cls-1" d="M153,120.4a8.55,8.55,0,0,1-8.64-8.69A8.72,8.72,0,1,1,153,120.4Zm.06-12.41a3.73,3.73,0,0,0-3.83,3.74,3.84,3.84,0,1,0,7.67,0A3.82,3.82,0,0,0,153.07,108Z" transform="translate(-16.5 -6)"/><path class="cls-1" d="M99.08,111.76a8.51,8.51,0,0,1-8.66,8.64,8.7,8.7,0,0,1-8.72-8.64A8.88,8.88,0,0,1,90.43,103,8.7,8.7,0,0,1,99.08,111.76Zm-12.42,0a3.87,3.87,0,0,0,3.74,3.89,4,4,0,0,0,3.9-4,3.83,3.83,0,0,0-3.92-3.7A3.55,3.55,0,0,0,86.66,111.78Z" transform="translate(-16.5 -6)"/><path class="cls-1" d="M121.74,120.4a8.52,8.52,0,0,1-8.64-8.67,8.72,8.72,0,0,1,8.69-8.7,8.84,8.84,0,0,1,8.68,8.76A8.61,8.61,0,0,1,121.74,120.4Zm3.78-8.63a3.54,3.54,0,0,0-3.71-3.78,3.85,3.85,0,0,0-3.93,3.7,4,4,0,0,0,3.91,4A3.85,3.85,0,0,0,125.52,111.77Z" transform="translate(-16.5 -6)"/><path class="cls-1" d="M184.32,120.4a8.61,8.61,0,0,1-8.69-8.63A8.79,8.79,0,0,1,184.3,103a8.88,8.88,0,0,1,8.71,8.72A8.67,8.67,0,0,1,184.32,120.4Zm3.73-8.6a3.54,3.54,0,0,0-3.67-3.81,3.79,3.79,0,0,0-3.92,3.85,4,4,0,0,0,3.86,3.83A3.86,3.86,0,0,0,188.05,111.8Z" transform="translate(-16.5 -6)"/><path class="cls-1" d="M153.11,147.15a8.79,8.79,0,0,1,8.73,8.69,9,9,0,0,1-8.82,8.68,8.73,8.73,0,0,1-8.65-8.78A8.55,8.55,0,0,1,153.11,147.15ZM153,159.57a3.76,3.76,0,0,0,3.88-3.7,3.84,3.84,0,1,0-7.67-.07A3.69,3.69,0,0,0,153,159.57Z" transform="translate(-16.5 -6)"/><path class="cls-1" d="M137.36,22.26H112.85a9.91,9.91,0,0,1-2-.15A2.23,2.23,0,0,1,109,19.82a2.21,2.21,0,0,1,1.76-2.33,6.55,6.55,0,0,1,1.66-.17q25,0,49.94,0a6.74,6.74,0,0,1,1.84.24,2.07,2.07,0,0,1,1.54,2.1A2.08,2.08,0,0,1,164.25,22a7.38,7.38,0,0,1-2.2.27Q149.7,22.28,137.36,22.26Z" transform="translate(-16.5 -6)"/><path class="cls-1" d="M137.31,38.59H162a9.59,9.59,0,0,1,1.86.09,2.24,2.24,0,0,1,1.87,2.24,2.09,2.09,0,0,1-1.67,2.36,8.22,8.22,0,0,1-2,.24H112.65a7.3,7.3,0,0,1-2-.26A2.2,2.2,0,0,1,109,40.85a2.26,2.26,0,0,1,1.77-2.14,8.86,8.86,0,0,1,1.86-.12Z" transform="translate(-16.5 -6)"/><path class="cls-1" d="M137.31,54.11H112.82a11.62,11.62,0,0,1-1.87-.06,2.32,2.32,0,0,1-2-2.19,2.22,2.22,0,0,1,1.81-2.46,8.72,8.72,0,0,1,2-.2q24.49,0,49,0a9.22,9.22,0,0,1,2,.18,2.12,2.12,0,0,1,1.86,2.4,2.27,2.27,0,0,1-2,2.28,10.45,10.45,0,0,1-1.68,0Z" transform="translate(-16.5 -6)"/><path class="cls-1" d="M137.39,32.81h-24.7a11.75,11.75,0,0,1-1.68-.05,2.17,2.17,0,0,1-2-2.28,2.3,2.3,0,0,1,2-2.35,8,8,0,0,1,1.3,0q25.08,0,50.16,0a10.47,10.47,0,0,1,1.12,0,2.19,2.19,0,0,1,2.18,2.32,2.16,2.16,0,0,1-2.14,2.35,15.7,15.7,0,0,1-1.68,0Z" transform="translate(-16.5 -6)"/></svg>