<svg id="Layer_1" data-name="Layer 1" xmlns="http://www.w3.org/2000/svg" viewBox="0 0 172.89 149.5"><defs><style>.cls-1{fill:none;stroke:#037ef5;stroke-miterlimit:10;}</style></defs><path class="cls-1" d="M156.5,91.5c6.29-.09,14.37.26,20.62-.74,5.41-.87,10.78-3.09,14.45-7.15,6.56-7.27,6.16-18.77,2-27.61-5.76-12.16-17.48-20.72-30.13-25.32S137.14,25,123.7,24.44c-18.16-.76-36.57-.63-54.2,3.79-12.11,3.05-24,8.32-32.61,17.41A46.72,46.72,0,0,0,25.71,65.78c-.94,3.61-1.45,7.46-.45,11.06,1.51,5.45,6.3,9.5,11.55,11.58,8.61,3.41,20.81,2.66,29.84,2.66" transform="translate(-24.22 -23.59)"/><path class="cls-1" d="M132.07,172.56c4.7-4.69,10.28-8.79,13.92-14.19,12.08-17.93,1.74-46-20.06-49.54-15-2.46-31.75-4.5-44.49,11.15-13.37,16.43-12.94,32.81,4.32,46.58a77.94,77.94,0,0,1,6.06,6" transform="translate(-24.22 -23.59)"/><path class="cls-1" d="M153.2,76c4.29-9.14,1.69-20.18-9.07-20.78a547.21,547.21,0,0,0-62.35.06c-8.94.53-14.7,4.36-13.2,17.84,1.35,12.15-3.45,26.31-14.84,36.27C34.58,126.12,27.2,146.74,38.1,172.58h148c8.12-22.9,5.6-42.67-11.72-59.36-9.8-9.43-20.79-18-18.57-34.28.07-.49-.29-1-.95-1.65a7.62,7.62,0,0,0-12.42,3.57L140,89.07H83.77C81.5,83.5,83.53,71.24,68.7,74" transform="translate(-24.22 -23.59)"/></svg>