<svg id="Layer_1" data-name="Layer 1" xmlns="http://www.w3.org/2000/svg" viewBox="0 0 211 173.01"><defs><style>.cls-1{fill:none;stroke:#037ef5;stroke-miterlimit:10;stroke-width:3px;}.cls-2{fill:#037ef5;}</style></defs><path class="cls-1" d="M13.68,61.48H210.56v2.28c0,34.84-.05,69.68.05,104.52a8,8,0,0,1-7.75,8.19c-.64,0-1.28,0-1.92,0H23c-2.8,0-5.49-.31-7.48-2.54a7.78,7.78,0,0,1-1.57-2.75,9.55,9.55,0,0,1-.24-2.94q0-52.34,0-104.69Z" transform="translate(-6.64 -5)"/><path class="cls-2" d="M165.64,86.84A8.86,8.86,0,0,1,161,90.61a57.66,57.66,0,0,1-13.38,3.75A185.88,185.88,0,0,1,121.45,97a241.58,241.58,0,0,1-25.67-.37C86.38,96,77,95,68.08,92.32a33.58,33.58,0,0,1-6.5-2.66c-3.92-2.18-3.85-4.79,0-7.06a34.8,34.8,0,0,1,9.58-3.48A139.44,139.44,0,0,1,93.6,75.86a241.65,241.65,0,0,1,28.48-.5c10.76.45,21.45,1.32,31.8,4A62.92,62.92,0,0,1,161.54,82a7.49,7.49,0,0,1,4.1,3.5Z" transform="translate(-6.64 -5)"/><path class="cls-2" d="M165.64,108.79a8.88,8.88,0,0,1-4.63,3.78,57.72,57.72,0,0,1-13.37,3.75,186.1,186.1,0,0,1-26.08,2.59,238.2,238.2,0,0,1-25.77-.36c-9.41-.65-18.76-1.61-27.7-4.27a43.51,43.51,0,0,1-6.67-2.76,4.44,4.44,0,0,1-2.77-4.4c.13-4.22,0-8.45,0-12.78,2.47,3.43,6.64,4.55,10.73,5.7A116.23,116.23,0,0,0,90,103.46a237.23,237.23,0,0,0,29.81.87c11.43-.38,22.78-1.23,33.79-4a61.81,61.81,0,0,0,7.05-2.31,9,9,0,0,0,5-3.85Z" transform="translate(-6.64 -5)"/><path class="cls-2" d="M165.64,130.75a8.92,8.92,0,0,1-4.63,3.78,57.72,57.72,0,0,1-13.37,3.75,186.1,186.1,0,0,1-26.08,2.59,240.78,240.78,0,0,1-25.77-.36c-9.41-.65-18.76-1.61-27.7-4.28a42.49,42.49,0,0,1-6.67-2.75,4.45,4.45,0,0,1-2.77-4.4c.13-4.22,0-8.45,0-12.78,2.47,3.42,6.64,4.55,10.73,5.69A117.16,117.16,0,0,0,90,125.42a237.23,237.23,0,0,0,29.81.86c11.43-.37,22.78-1.23,33.79-4a61.81,61.81,0,0,0,7.05-2.31,9,9,0,0,0,5-3.85Z" transform="translate(-6.64 -5)"/><path class="cls-2" d="M105.69,163l-6-.32A169.32,169.32,0,0,1,75,159.9a50.59,50.59,0,0,1-11.82-3.51,17.53,17.53,0,0,1-2.63-1.53,4,4,0,0,1-1.87-3.47c.07-4.34,0-8.69,0-13.14,2.46,3.43,6.63,4.55,10.72,5.7A116.38,116.38,0,0,0,90,147.37a235.51,235.51,0,0,0,29.82.87c11.43-.37,22.78-1.23,33.79-4a58.1,58.1,0,0,0,7.05-2.31,9,9,0,0,0,5-3.84v14.58a8.38,8.38,0,0,1-4.17,3.56,16.23,16.23,0,0,1-2.59,1.07c-3.15.89-6.27,1.87-9.49,2.53a159,159,0,0,1-24.31,2.8l-6.44.33Z" transform="translate(-6.64 -5)"/><path class="cls-1" d="M13.62,1.5H197.38A12.12,12.12,0,0,1,209.5,13.62V47.5a0,0,0,0,1,0,0H1.5a0,0,0,0,1,0,0V13.62A12.12,12.12,0,0,1,13.62,1.5Z"/></svg>