<svg id="Layer_1" data-name="Layer 1" xmlns="http://www.w3.org/2000/svg" viewBox="0 0 202.58 185"><defs><style>.cls-1{fill:#037ef5;}</style></defs><path class="cls-1" d="M112.24,185l-14.53-9.88,4.13-4.82,7.9,5.26V150.92A67.71,67.71,0,0,1,70.44,136L51.28,153.51l9.86,1.36c-.26,2-.52,3.91-.8,6.06-2.28-.29-4.4-.54-6.52-.82-3.57-.49-7.16-.88-10.68-1.58a3.42,3.42,0,0,1-2.26-2.12c-.93-5.07-1.6-10.19-2.39-15.5l6.45-.84,1.4,9.22,19.17-17.53-6.57-8.37a8.75,8.75,0,0,1-.77-1c-3.13-5.33-6-10.79-7.19-16.93-.56-2.8-1.06-5.61-1.55-8.42-.14-.81-.17-1.51-1.32-1.5-8.29,0-16.58,0-24.87,0a3.46,3.46,0,0,0-.78.27L28.22,103l-5.39,3.69Q17.45,100.14,12,93.58V91.42c3.59-4.35,7.19-8.69,10.82-13.08L28.22,82l-5.9,7.27c1,0,1.49.11,2,.11,7.69,0,15.38,0,23.07,0,1.45,0,2-.4,2.07-1.88.27-6.89,2.64-13.47,5.89-19.48.69-1.27,9.59-15.35,10.35-14.66L46.53,35.89l-.93,7.55-6.42-.59,1.1-10.36c0-.3.1-.59.13-.89.58-5.07.76-5.21,5.94-5.65q5.57-.48,11.11-1.12c1.22-.14,1.78.13,1.81,1.46s.26,2.85.43,4.48l-8.22.9C57.91,37.56,64,43.14,70.41,49A68,68,0,0,1,109.74,34.1V9.43l-7.88,5.27L97.7,9.89,112.24,0h2.16l13.75,9.31a7,7,0,0,1,.67.56l-4,4.87-7.9-5.25V34c.67.11,1.35.27,2,.32a61.18,61.18,0,0,1,24.6,6.81c4,2.14,7.74,4.74,11.54,7.22a1.41,1.41,0,0,0,2.13-.16c4.8-4.51,9.63-9,14.47-13.43,1-.95,2.1-1.84,3.52-3.07L167,30.8c.2-2,.39-4,.6-6.11,4,.4,7.79.73,11.59,1.17a26.24,26.24,0,0,1,5.07,1,2.82,2.82,0,0,1,1.59,1.9c.66,4.63,1.13,9.28,1.69,14.1a42.85,42.85,0,0,1-5.54.47c-.53,0-1.33-1-1.48-1.7a51.67,51.67,0,0,1-.65-5.48L161,53.29c1.78,2.16,3.53,4.11,5.1,6.2a51.52,51.52,0,0,1,10.34,24.32,35.85,35.85,0,0,0,.84,4.37c.13.47.75,1.17,1.15,1.17,8.46.07,16.92.05,25.94.05l-6-7.38,5.36-3.67c2.62,3.19,5.22,6.37,7.84,9.53.61.73,1.25,1.44,1.91,2.11a3.46,3.46,0,0,1,.12,4.88c-2.25,2.62-4.44,5.3-6.66,7.94-1.07,1.27-2.17,2.52-3.26,3.79L198.38,103l5.87-7.22c-.78-.09-1.22-.19-1.66-.19-7.81,0-15.62,0-23.43,0-1.57,0-1.73.67-2,2-1.32,5.64-2.32,11.45-4.42,16.8a45.71,45.71,0,0,1-9.67,14.9c-.7.73-1.29,1.56-2,2.48l18.83,17.19c.22-2.07.42-3.78.58-5.49.13-1.3.67-2,2.09-1.76,1.59.23,3.19.36,5,.56-.56,4.8-1.09,9.44-1.63,14.09a2.6,2.6,0,0,1-2.45,2.29c-5.21.67-10.45,1.19-15.84,1.78-.23-2.15-.43-4-.65-6.14l8.14-.88c-2.26-2.13-4.21-4-6.22-5.85-1.72-1.57-3.53-3-5.25-4.59-2.16-2-4.31-4-6.38-6.06-.86-.86-1.41-.71-2.27,0a65.45,65.45,0,0,1-36.19,13.91c-.59,0-1.18.16-1.86.25v24.56l7.86-5.27,4.09,4.85L114.4,185Zm-.65-40.12c13.17,0,23.76-2.93,33.49-8.73a55,55,0,0,0,16-14.61,47.1,47.1,0,0,0,8-16.7c2.42-9.69,2.37-19.39-1.47-28.81-1.05-2.58-2.26-5.11-3.54-7.58a48.39,48.39,0,0,0-12.72-15.06,55.06,55.06,0,0,0-14.9-8.84,61.84,61.84,0,0,0-38.15-2.61C75.83,47.48,57.29,66.57,56,90.28a47.41,47.41,0,0,0,7.71,28.38,56.55,56.55,0,0,0,8,9.8,57.18,57.18,0,0,0,16.57,11.11A60.07,60.07,0,0,0,111.59,144.88Z" transform="translate(-12)"/><path class="cls-1" d="M113.17,104.8c-7.54-.09-13.24-5.43-13.2-12.36s5.92-12.34,13.49-12.23c7.23.11,13.37,5.43,13.24,12.53S120.25,104.84,113.17,104.8Zm.07-6.16a6.43,6.43,0,0,0,6.82-6.14c0-2.75-2.34-6-6.65-6.17-3.5-.12-7,3.22-7,6.08S109.82,98.82,113.24,98.64Z" transform="translate(-12)"/><path class="cls-1" d="M141.75,103.26c.72-3.61,1.41-7.06,2.14-10.69h6.54c-.23,4.45-.55,8.81-3.05,12.8Z" transform="translate(-12)"/><path class="cls-1" d="M101.36,66.4c-3.14,2.12-6,4.11-9,6A1.87,1.87,0,0,1,90.65,72c-1.12-1.15-2.07-2.48-3.13-3.81a35.45,35.45,0,0,1,10.31-6.51c1.09-.48,1.54.06,1.9.88C100.33,63.91,100.89,65.29,101.36,66.4Z" transform="translate(-12)"/><path class="cls-1" d="M82.51,92.43H76.28a32.27,32.27,0,0,1,2.56-12.86L85,81.84C84.14,85.39,83.34,88.86,82.51,92.43Z" transform="translate(-12)"/><path class="cls-1" d="M135,112.39l4.66,4.21c-2.61,1.79-4.95,3.47-7.38,5a40.84,40.84,0,0,1-3.7,1.81c-.81.41-1.31.32-1.66-.61-.57-1.51-1.23-3-1.81-4.39Z" transform="translate(-12)"/><path class="cls-1" d="M99.33,123.83l2.22-5.35,11.68,2.12v5.79A37.56,37.56,0,0,1,99.33,123.83Z" transform="translate(-12)"/><path class="cls-1" d="M134.94,72.6c1.16-1.09,2.41-2.38,3.81-3.48a1.8,1.8,0,0,1,1.73.26c2.66,3,5.44,5.91,6.85,10.06l-5.6,2.18C139.45,78.58,137.25,75.66,134.94,72.6Z" transform="translate(-12)"/><path class="cls-1" d="M84.8,103.35l6.35,8.46c-1,1.2-2,2.61-3.14,3.88a1.63,1.63,0,0,1-1.59.2c-2.88-3-5.71-6.1-7.12-10.41Z" transform="translate(-12)"/><path class="cls-1" d="M113.39,58.57a39.8,39.8,0,0,1,13.83,2.57L125,66.53,113.39,64.4Z" transform="translate(-12)"/></svg>