<svg id="Layer_1" data-name="Layer 1" xmlns="http://www.w3.org/2000/svg" viewBox="0 0 172.15 172.49"><defs><style>.cls-1,.cls-2,.cls-4{fill:none;stroke:#037ef5;stroke-miterlimit:10;}.cls-2{stroke-width:2px;}.cls-3{fill:#037ef5;}.cls-4{stroke-width:3px;}</style></defs><path class="cls-1" d="M61.17,91.85c0-2.63,0-5.27,0-7.9,0-2.38,1-3.41,3.37-3.44,1.91,0,3.83,0,5.73-.06a1.88,1.88,0,0,0,1.33-1c1.15-2.56,2.24-5.15,3.22-7.78a2.09,2.09,0,0,0-.35-1.77c-1.26-1.44-2.69-2.72-4-4.11-1.5-1.58-1.51-3,0-4.55q5.79-5.88,11.66-11.69c1.54-1.53,3-1.51,4.55,0,1.34,1.28,2.66,2.59,3.92,3.94a1.55,1.55,0,0,0,2.15.42c2.43-1.13,4.91-2.15,7.43-3.08a1.46,1.46,0,0,0,1.16-1.66c-.06-1.86,0-3.72,0-5.57,0-2.26,1.06-3.35,3.27-3.36q8.16,0,16.32,0c2.31,0,3.33,1.07,3.35,3.45,0,1.86-.07,3.72.06,5.57a2.07,2.07,0,0,0,1.06,1.44c2.49,1.14,5.07,2.09,7.55,3.25a1.46,1.46,0,0,0,2-.41c1.27-1.34,2.59-2.65,3.93-3.93,1.65-1.59,3-1.61,4.68,0q5.79,5.74,11.53,11.56c1.61,1.63,1.59,3,0,4.69-1.29,1.34-2.59,2.66-3.94,3.94a1.47,1.47,0,0,0-.39,2c1.16,2.49,2.09,5.07,3.23,7.57a2.1,2.1,0,0,0,1.46,1c1.84.13,3.7,0,5.55,0,2.37,0,3.43,1,3.44,3.38,0,5.39,0,10.78,0,16.17,0,2.42-1.06,3.43-3.54,3.45-1.86,0-3.71-.07-5.56,0a1.91,1.91,0,0,0-1.33,1c-1.15,2.56-2.24,5.15-3.22,7.78a2.09,2.09,0,0,0,.36,1.77c1.21,1.4,2.6,2.64,3.89,4,1.65,1.72,1.66,3.12,0,4.82q-5.67,5.75-11.41,11.44c-1.69,1.68-3.09,1.66-4.81,0-1.29-1.25-2.57-2.51-3.8-3.82a1.55,1.55,0,0,0-2.14-.42c-2.43,1.15-4.91,2.19-7.42,3.11-.91.34-1.2.73-1.17,1.65.06,1.85,0,3.71,0,5.57,0,2.25-1.07,3.34-3.27,3.35q-8.16,0-16.32,0c-2.32,0-3.33-1.08-3.35-3.46,0-1.86.07-3.72-.06-5.57a2.06,2.06,0,0,0-1.06-1.45c-2.49-1.14-5-2.19-7.59-3.15a2.08,2.08,0,0,0-1.79.25c-1.44,1.26-2.72,2.7-4.1,4-1.65,1.58-3,1.58-4.68,0q-5.79-5.74-11.54-11.56c-1.61-1.63-1.58-3,0-4.69,1.29-1.33,2.59-2.66,3.94-3.93a1.47,1.47,0,0,0,.38-2c-1.15-2.49-2.1-5.07-3.23-7.57a2.11,2.11,0,0,0-1.46-1c-1.79-.13-3.59,0-5.38,0-2.6,0-3.6-1-3.61-3.56S61.17,94.55,61.17,91.85Zm88.12,28.32c-1.39-1.32-2.81-2.6-4.16-4-1.67-1.66-1.6-2.53-.65-4.62,1.66-3.62,3.18-7.31,4.57-11,.77-2.07,1.45-2.79,3.74-2.81,2,0,3.9,0,5.8,0V86.25c-2.06,0-4,0-5.88,0-2.17,0-2.9-.76-3.63-2.72-1.43-3.78-3-7.53-4.64-11.21-.9-2-1-2.91.63-4.48,1.39-1.38,2.87-2.68,4.15-3.87L141,55.64l-4.17,4.22a3,3,0,0,1-4.2.49,36.7,36.7,0,0,0-11.35-4.74c-2-.45-2.66-1.4-2.68-3.45s0-4,0-6H107.08c0,2,0,4,0,5.87,0,2.25-.76,2.93-2.85,3.71-3.68,1.36-7.32,2.84-10.87,4.5-2.21,1-3,1.12-4.76-.62-1.36-1.38-2.67-2.84-3.81-4.05l-8.38,8.39c1.31,1.22,2.78,2.52,4.17,3.91,1.58,1.57,1.52,2.5.62,4.49q-2.49,5.52-4.64,11.2c-.74,2-1.46,2.7-3.63,2.72-2,0-3.91,0-5.9,0V97.6a1.8,1.8,0,0,0,.45.13l5.37,0c2.29,0,3,.74,3.74,2.82,1.36,3.68,2.82,7.33,4.47,10.89,1.06,2.3,1.15,3.09-.68,4.91-1.34,1.34-2.73,2.63-4,3.8l8.41,8.41c1.17-1.3,2.4-2.76,3.73-4.12,1.78-1.83,2.55-1.71,4.89-.61,3.5,1.64,7.08,3.1,10.71,4.43,2.2.8,2.91,1.44,2.92,3.83,0,1.95,0,3.9,0,5.79h11.48c0-2.07,0-4,0-6,0-2.15.78-2.86,2.77-3.6,3.72-1.4,7.41-2.91,11-4.57,2.11-1,3-1.07,4.61.6,1.37,1.41,2.64,2.91,3.89,4.3Z" transform="translate(-26.74 -5.76)"/><path class="cls-2" d="M39.41,78.11l-5.63-1c5.31-24.83,19-43.32,40.91-56-.57-1.76-1.17-3.56-1.73-5.37-.83-2.7.71-4.53,3.5-4.13,6.33.9,12.65,1.84,19,2.73a3.15,3.15,0,0,1,2.88,2.06c.48,1.37-.17,2.41-1.11,3.36-4.49,4.48-9,9-13.45,13.45-2.2,2.19-4.39,1.63-5.42-1.34-.57-1.62-1.12-3.26-1.78-5.2C56.65,38.43,44.34,55.41,39.41,78.11ZM82.22,25.4l6.24-6.27L79.73,17.9Z" transform="translate(-26.74 -5.76)"/><path class="cls-2" d="M183.61,53.81c1.84-.61,3.64-1.22,5.45-1.78,2.51-.76,4.39.74,4,3.31q-1.35,9.87-2.84,19.72a2.8,2.8,0,0,1-4.87,1.67q-7.26-7.08-14.32-14.36c-1.61-1.66-1-3.93,1.23-4.75,1.78-.68,3.6-1.22,5.42-1.82-5.29-11.47-22.38-31.59-51-37.33.31-1.77.63-3.55,1-5.68C152.47,18.12,170.93,31.75,183.61,53.81Zm3.18,5-7.87,2.66L185.47,68C185.89,65.16,186.32,62.13,186.79,58.82Z" transform="translate(-26.74 -5.76)"/><path class="cls-2" d="M151,162.93c.59,1.81,1.2,3.61,1.75,5.42.79,2.6-.75,4.45-3.42,4.07-6.45-.91-12.9-1.8-19.32-2.86a3.66,3.66,0,0,1-2.49-1.88,3.56,3.56,0,0,1,.7-3c4.59-4.79,9.3-9.48,14-14.13,1.81-1.78,4.09-1.2,5,1.19.67,1.77,1.22,3.59,1.91,5.65,19.93-11.81,32.25-28.82,37.15-51.47l5.64,1C186.53,131.79,172.85,150.29,151,162.93Zm-14.29,1.86,9.27,1.3c-1-2.93-1.86-5.53-2.66-7.92Z" transform="translate(-26.74 -5.76)"/><path class="cls-2" d="M99,165.55c-.33,1.84-.66,3.63-1,5.56A79.38,79.38,0,0,1,65.43,157a80.86,80.86,0,0,1-23.31-26.77c-1.9.62-3.69,1.22-5.5,1.78-2.59.8-4.44-.74-4.07-3.43.9-6.46,1.79-12.92,2.86-19.35a3.81,3.81,0,0,1,2.05-2.55,3.58,3.58,0,0,1,3,.87c4.69,4.52,9.28,9.16,13.85,13.81,2,2,1.38,4.2-1.23,5.17-1.72.64-3.48,1.2-5.46,1.88C59.36,148.34,76.34,160.66,99,165.55ZM40.18,115.84l-1.32,9.33,8-2.67Z" transform="translate(-26.74 -5.76)"/><path class="cls-3" d="M112.75,23a8.62,8.62,0,1,1,8.67-8.46A8.64,8.64,0,0,1,112.75,23Zm0-5.75A2.87,2.87,0,1,0,110,14.29,2.9,2.9,0,0,0,112.73,17.24Z" transform="translate(-26.74 -5.76)"/><path class="cls-3" d="M35.33,100.62A8.62,8.62,0,1,1,44,92.1,8.66,8.66,0,0,1,35.33,100.62Zm2.87-8.57a2.86,2.86,0,1,0-2.9,2.81A2.89,2.89,0,0,0,38.2,92.05Z" transform="translate(-26.74 -5.76)"/><path class="cls-3" d="M198.9,91.94a8.61,8.61,0,1,1-8.58-8.56A8.66,8.66,0,0,1,198.9,91.94Zm-5.75,0a2.86,2.86,0,1,0-2.83,2.89A2.89,2.89,0,0,0,193.15,92Z" transform="translate(-26.74 -5.76)"/><path class="cls-3" d="M112.86,178.24a8.62,8.62,0,1,1,8.56-8.57A8.65,8.65,0,0,1,112.86,178.24Zm0-11.48a2.87,2.87,0,1,0,2.81,2.9A2.89,2.89,0,0,0,112.86,166.76Z" transform="translate(-26.74 -5.76)"/><path class="cls-4" d="M186.79,58.82c-.47,3.31-.9,6.34-1.32,9.21l-6.55-6.55Z" transform="translate(-26.74 -5.76)"/><path class="cls-3" d="M141.51,92A28.69,28.69,0,1,1,113,63.25,28.78,28.78,0,0,1,141.51,92Zm-28.77,23A23,23,0,1,0,89.87,92,23,23,0,0,0,112.74,115Z" transform="translate(-26.74 -5.76)"/></svg>