<svg id="Layer_1" data-name="Layer 1" xmlns="http://www.w3.org/2000/svg" viewBox="0 0 215 169.39"><defs><style>.cls-1{fill:#037ef5;}</style></defs><path class="cls-1" d="M113.45,7q47.83,0,95.67,0c3.72,0,7.21.6,9.57,3.48a15,15,0,0,1,2.12,4.32,6.67,6.67,0,0,1,.07,2.28c0,49.69-.09,99.38.12,149.06,0,6.81-5.27,10.25-11.34,10.24q-42.54-.06-85.1,0H17.75c-3.43,0-6.49-.69-9.13-2.94a7.38,7.38,0,0,1-2.48-4.94,13.5,13.5,0,0,1,0-2.11C6.1,116.56,6.18,66.76,6,17,6,10.42,11,7,17,7ZM213.83,18.31c.42-4.26-.73-5.66-4.48-5.66H17.44c-3.22,0-4.42,1.09-4.42,4V166.73c0,2.87,1.21,4,4.41,4H209c3.84,0,5-1.08,5-4.56V23.85H34.64V18.31Z" transform="translate(-6 -6.99)"/><path class="cls-1" d="M117.22,55V66.27H176.6c4,0,5.09,1,5.09,4.66V83.21h2.07c6.15,0,12.29,0,18.44,0,3.32,0,4.66,1.35,4.52,4.08a113,113,0,0,0,0,11.64c.14,2.72-1.26,4.07-4.55,4-6.72,0-13.45,0-20.32,0v8.46h2c6.15,0,12.3,0,18.45,0,3.14,0,4.57,1.33,4.44,4-.19,4-.19,8,0,12,.11,2.47-1.37,3.8-4.24,3.8H181.82v8.47h20.53c3.21,0,4.49,1.37,4.37,4-.19,4-.18,8,0,12,.1,2.34-1.29,3.7-4.13,3.72-3.07,0-6.15,0-9.22,0H154.18c-3.92,0-4.76-.76-4.76-4.29,0-3.88,0-7.76,0-11.65,0-2.87,1-3.8,4.11-3.81,6.85,0,13.7,0,20.71,0v-8.47H154.38c-4.18,0-5-.7-5-4.46V115.44c0-3.11.93-4,4.3-4h20.51V103H153.82c-3.49,0-4.4-.86-4.4-4.09V87.41c0-3.42.86-4.2,4.67-4.2H174.3V72h-57V83.21h20.39c3.51,0,4.46.88,4.47,4.05q0,6,0,12c0,2.71-1,3.69-4.07,3.7-6.21,0-12.42,0-18.63,0h-2.17v8.46h20.45c3.49,0,4.42.88,4.43,4.08V127c0,3.38-.91,4.2-4.69,4.2H117.3v8.47h20.23c3.66,0,4.59.84,4.59,4.12,0,4,0,8,0,12,0,2.63-1.05,3.62-4,3.64-6,0-12,0-18.06,0H89.56c-3.86,0-4.69-.78-4.69-4.36V143.77c0-3.29.9-4.1,4.57-4.11h20.27v-8.47h-3.43c-5.76,0-11.52,0-17.29,0-3.13,0-4.12-.95-4.12-3.82q0-6,0-12c0-3.07.95-3.94,4.37-3.94h20.47V103h-7.83c-4.29,0-8.58,0-12.88,0-3.13,0-4.13-.95-4.13-3.8q0-6.09,0-12.17c0-2.84,1-3.77,4.16-3.78h20.68V72h-57V83.21H73.17c3.48,0,4.39.87,4.4,4.1,0,2.06,0,4.11,0,6.17-.09,10.17,1.53,9.52-10.44,9.49-4.74,0-9.48,0-14.37,0v8.46H73.17c3.48,0,4.39.86,4.4,4.09v11.12c0,3.87-.75,4.54-5.07,4.54H52.75v8.47H73.16c3.49,0,4.4.87,4.41,4.1,0,4.05,0,8.11,0,12.17,0,2.42-1,3.47-3.71,3.47q-24.88,0-49.76,0c-2.75,0-3.76-1.05-3.77-3.61q0-6.16,0-12.35c0-2.83,1-3.76,4.18-3.77,6.14,0,12.29,0,18.44,0h2.22v-8.47H42.7c-6.08,0-12.17,0-18.25,0-3.13,0-4.13-1-4.13-3.83,0-3.88,0-7.76,0-11.64,0-3.51.86-4.28,4.78-4.28H45.17V103H38.83c-4.8,0-9.6,0-14.41,0-3.1,0-4.1-1-4.1-3.85q0-6.08,0-12.17c0-2.74,1-3.71,4-3.72,6.21,0,12.42,0,18.63,0h2.3c0-4.58,0-9,0-13.48,0-2.07,1.36-3.34,3.63-3.45.63,0,1.28,0,1.92,0h58.87V55h-2.11q-12.78,0-25.55,0c-3.34,0-4.49-1.06-4.49-4.08,0-3.77,0-7.53,0-11.29,0-3.42,1-4.38,4.74-4.38h53.4c3.14,0,6.28,0,9.41,0s4.29,1.14,4.3,3.91v12c0,2.65-1.26,3.83-4.18,3.84q-12.87,0-25.75,0ZM85,49.21h57V41H85Zm-57.24,48H70.5V88.94H27.71Zm107-8.22H91.94v8.25h42.79Zm21.68,8.26h42.84V89H156.41ZM27.7,125.42H70.49v-8.25H27.7Zm64.18-8.28v8.31h42.81v-8.31Zm107.33,8.37V117.2H156.49v8.31ZM70.56,145.43H27.77v8.26H70.56Zm21.31,8.22h42.79V145.4H91.87Zm64.55,0h42.79V145.4H156.42Z" transform="translate(-6 -6.99)"/><path class="cls-1" d="M27.48,23.85H20.42V18.43h7.06Z" transform="translate(-6 -6.99)"/></svg>