<svg id="Layer_1" data-name="Layer 1" xmlns="http://www.w3.org/2000/svg" viewBox="0 0 218.86 167.87"><defs><style>.cls-1{fill:#037ef5;}</style></defs><path class="cls-1" d="M223,107.78c-2.43,4-6.24,5.13-10.61,5.54-3.76.34-7.49,1.11-12.59,1.91,3.31,3.17,5.8,5.63,8.38,8,3,2.79,4.61,6.56,2.08,9.68-1.8,2.22-5.69,3.74-8.68,3.8-5.76.11-11.55-1-18.3-1.76,1.78,4.27,3.8,7.73,4.59,11.46.58,2.7.57,6.81-1,8.35-1.88,1.79-6.07,2.55-8.74,1.83-6.44-1.75-12.58-4.63-19.35-7.24-.4,4.89-.33,9.44-1.29,13.75-.61,2.72-2.24,6.47-4.35,7.26-2.43.91-6.4-.15-8.81-1.73-5.16-3.36-9.75-7.6-15.13-11.94-2.83,4.93-5.45,9.62-8.19,14.25-4.32,7.33-10.73,7.23-15-.21-2.45-4.26-4.83-8.56-7.26-12.83-.08-.15-.27-.24-1-.8-4.37,3.43-8.91,6.94-13.38,10.52-3,2.45-6,4.93-10.32,3.15s-4.56-5.67-4.71-9.62c-.13-3.63-.46-7.25-.75-11.58-6.25,2.27-12.18,4.33-18,6.6-3.81,1.47-7.46,2.22-10.57-1.2-2.93-3.22-2-6.66-.31-10.15,1.44-2.9,2.68-5.9,4.32-9.56-6.54.59-12.3,1-18,1.67-3.95.45-7.48-.11-9.36-3.92-2-4-.56-7.37,2.76-10.16,2.48-2.08,4.82-4.34,8-7.26-5.37-.92-9.74-1.74-14.14-2.41s-8.42-1.89-9-7.09c-.59-4.9,2.7-7.12,6.68-8.75,3.18-1.3,6.27-2.81,10.42-4.69-4.5-2.18-8.17-4-11.87-5.74C6,85.28,3.75,82.79,4.22,78.8c.49-4.27,3.48-6.17,7.44-6.79,4.8-.75,9.62-1.43,15.66-2.33-3.29-3.15-5.68-5.55-8.2-7.81-3-2.72-4.38-6-2.63-9.77S21.7,47.44,25.71,48c5.76.74,11.55,1.27,18,2-1.78-4.3-3.82-7.83-4.61-11.62-.56-2.68-.4-6.63,1.2-8.33s5.75-2.51,8.25-1.81C55.2,30,61.52,32.9,68.35,35.52c.41-5.15.67-9.82,1.19-14.47.79-7.12,6.84-9.8,12.56-5.49,5.23,3.94,10.26,8.16,15.82,12.62,2.84-5,5.47-9.71,8.23-14.36,4.21-7.09,10.63-7.09,14.72,0,2.63,4.55,5.12,9.18,8,14.34,5.33-4.18,10.07-8.41,15.35-11.81,2.44-1.57,6.51-2.82,8.78-1.82s3.81,4.86,4.47,7.74c.91,4,.7,8.29,1,13.08,6.37-2.33,12.33-4.41,18.23-6.69,3.62-1.4,7.13-2.07,10.14,1,3.24,3.29,2.35,6.91.48,10.58-1.4,2.73-2.54,5.59-4.21,9.31,6.19-.51,11.69-.78,17.14-1.46,4.3-.54,8.28-.36,10.32,4s0,7.69-3.42,10.5c-2.35,1.93-4.54,4.06-6.95,6.24,7.68,3.81,17.36.2,22.82,8.31V82.6l-15.72,9.73,15.72,10Zm-109.4-92c-2.59,4.57-4.58,8-6.53,11.51-5.73,10.2-8.6,10.78-17.55,3.57-3.86-3.11-7.77-6.16-12.46-9.88-.3,4.78-.56,8.39-.73,12-.43,8.94-4.54,11.68-12.89,8.51C58,39.43,52.49,37.34,45.79,34.79c1.82,4.32,3,7.15,4.2,10,3.41,8.3-.44,13.28-9.35,12.2-5.28-.63-10.58-1.11-16.53-1.73,3,3.16,5.71,5.4,7.52,8.23,1.53,2.39,3.36,6,2.54,8.1C33.23,74,29.76,76.08,27,77c-4.32,1.38-9,1.62-15,2.58,4.5,2.19,7.53,3.79,10.67,5.15,3.61,1.55,7,4,6.06,8C28,95.46,25.1,98.09,22.55,100s-6.1,3.06-10.38,5.1c5.87,1.05,10.34,1.33,14.41,2.75,2.94,1,6.88,3.14,7.57,5.57s-1.65,6.17-3.43,8.81c-1.64,2.43-4.3,4.16-7.56,7.17,6.85-.62,12.08-1.52,17.29-1.4,3.17.06,7.52.77,9.1,2.87s.78,6.37.12,9.5c-.62,3-2.43,5.67-4.2,9.55,7.28-2.68,13.21-4.94,19.2-7,6.74-2.37,11.16.52,11.53,7.63.21,4.08,0,8.17,0,13.82,6.28-4.92,11.07-8.77,16-12.48,5.42-4.12,9.66-3.29,13.06,2.53,2.63,4.5,5.1,9.08,7.65,13.64.72-.42,1.16-.52,1.32-.78,2.5-4.23,4.93-8.5,7.47-12.71,3.67-6.09,7.85-6.86,13.47-2.45,4.7,3.69,9.32,7.49,14.8,11.9.32-4.91.6-8.87.83-12.83.46-7.87,4.77-10.82,12.05-8.1,5.7,2.12,11.36,4.39,18.49,7.15-1.79-4.22-3.46-6.9-4-9.79-.59-3.16-1.36-7.44.21-9.52s5.94-2.74,9.09-2.77c5.23-.05,10.46.9,17.08,1.56-3.47-3.38-6.27-5.35-8-8s-3.49-6.21-2.71-8.54,4.47-4.33,7.28-5.22c4.26-1.36,8.86-1.63,14.82-2.61-5-2.37-8.72-3.57-11.73-5.78-2.26-1.65-5.07-4.66-4.94-6.92.15-2.57,2.85-5.56,5.22-7.29,2.95-2.15,6.7-3.2,10.1-4.72-5-1.87-9.89-2.27-14.47-3.68-2.48-.76-5.72-2.87-6.3-5-.65-2.4.72-5.91,2.29-8.19,2-2.87,5-5,8.49-8.23-6.64.6-11.89,1.49-17.13,1.39-3.16-.06-7.52-.76-9.1-2.86s-.79-6.37-.13-9.5c.62-3,2.42-5.66,4.2-9.56-7.31,2.69-13.24,5-19.22,7.06-6.73,2.36-11.15-.58-11.5-7.68-.2-4.08,0-8.17,0-13.79-6.3,4.94-11.09,8.79-16,12.5-5.44,4.11-9.65,3.26-13.06-2.6C119.16,25.94,116.68,21.33,113.6,15.79Z" transform="translate(-4.14 -8.5)"/><path class="cls-1" d="M113.55,59.61q24.62,0,49.23,0c8.6,0,12.77,4.07,12.84,12.71.1,13.49.12,27,0,40.48-.08,8.27-4.34,12.44-12.58,12.45q-49.5.06-99,0c-8.25,0-12.49-4.19-12.56-12.47q-.18-20.23,0-40.48c.07-8.62,4.24-12.67,12.86-12.69Q88.93,59.57,113.55,59.61ZM113,117.89c16.41,0,32.82-.1,49.23.06,4.5,0,6.15-1.65,6.08-6.13q-.27-19.41,0-38.83c.06-4.56-1.73-6.07-6.15-6q-48.69.16-97.38,0c-4.49,0-6.13,1.62-6.06,6.11.2,12.76.25,25.53,0,38.29-.11,5.07,1.75,6.7,6.7,6.63C81.29,117.75,97.15,117.89,113,117.89Z" transform="translate(-4.14 -8.5)"/></svg>